<svg width="20" height="20" viewBox="0 0 20 20" xmlns="http://www.w3.org/2000/svg">
<path d="M4.16667 18.3333C3.70833 18.3333 3.31583 18.17 2.98917 17.8433C2.6625 17.5166 2.49945 17.1244 2.5 16.6666V4.99996C2.5 4.54163 2.66333 4.14913 2.99 3.82246C3.31667 3.49579 3.70889 3.33274 4.16667 3.33329H5V1.66663H6.66667V3.33329H13.3333V1.66663H15V3.33329H15.8333C16.2917 3.33329 16.6842 3.49663 17.0108 3.82329C17.3375 4.14996 17.5006 4.54218 17.5 4.99996V9.99996H15.8333V8.33329H4.16667V16.6666H10V18.3333H4.16667ZM18.4375 14.1666L16.6667 12.3958L17.2708 11.7916C17.4236 11.6388 17.6181 11.5625 17.8542 11.5625C18.0903 11.5625 18.2847 11.6388 18.4375 11.7916L19.0417 12.3958C19.1944 12.5486 19.2708 12.743 19.2708 12.9791C19.2708 13.2152 19.1944 13.4097 19.0417 13.5625L18.4375 14.1666ZM11.6667 19.1666V17.3958L16.0833 12.9791L17.8542 14.75L13.4375 19.1666H11.6667ZM4.16667 6.66663H15.8333V4.99996H4.16667V6.66663Z" />
</svg>