<svg width="20" height="20" viewBox="0 0 20 20" fill="none" xmlns="http://www.w3.org/2000/svg">
<path d="M12.5 3.83333C12.5 3.36662 12.5 3.13327 12.4092 2.95501C12.3293 2.79821 12.2018 2.67072 12.045 2.59083C11.8667 2.5 11.6334 2.5 11.1667 2.5H8.83333C8.36662 2.5 8.13327 2.5 7.95501 2.59083C7.79821 2.67072 7.67072 2.79821 7.59083 2.95501C7.5 3.13327 7.5 3.36662 7.5 3.83333V6.16667C7.5 6.63338 7.5 6.86673 7.40917 7.04499C7.32928 7.20179 7.20179 7.32928 7.04499 7.40917C6.86673 7.5 6.63338 7.5 6.16667 7.5H3.83333C3.36662 7.5 3.13327 7.5 2.95501 7.59083C2.79821 7.67072 2.67072 7.79821 2.59083 7.95501C2.5 8.13327 2.5 8.36662 2.5 8.83333V11.1667C2.5 11.6334 2.5 11.8667 2.59083 12.045C2.67072 12.2018 2.79821 12.3293 2.95501 12.4092C3.13327 12.5 3.36662 12.5 3.83333 12.5H6.16667C6.63338 12.5 6.86673 12.5 7.04499 12.5908C7.20179 12.6707 7.32928 12.7982 7.40917 12.955C7.5 13.1333 7.5 13.3666 7.5 13.8333V16.1667C7.5 16.6334 7.5 16.8667 7.59083 17.045C7.67072 17.2018 7.79821 17.3293 7.95501 17.4092C8.13327 17.5 8.36662 17.5 8.83333 17.5H11.1667C11.6334 17.5 11.8667 17.5 12.045 17.4092C12.2018 17.3293 12.3293 17.2018 12.4092 17.045C12.5 16.8667 12.5 16.6334 12.5 16.1667V13.8333C12.5 13.3666 12.5 13.1333 12.5908 12.955C12.6707 12.7982 12.7982 12.6707 12.955 12.5908C13.1333 12.5 13.3666 12.5 13.8333 12.5H16.1667C16.6334 12.5 16.8667 12.5 17.045 12.4092C17.2018 12.3293 17.3293 12.2018 17.4092 12.045C17.5 11.8667 17.5 11.6334 17.5 11.1667V8.83333C17.5 8.36662 17.5 8.13327 17.4092 7.95501C17.3293 7.79821 17.2018 7.67072 17.045 7.59083C16.8667 7.5 16.6334 7.5 16.1667 7.5L13.8333 7.5C13.3666 7.5 13.1333 7.5 12.955 7.40917C12.7982 7.32928 12.6707 7.20179 12.5908 7.04499C12.5 6.86673 12.5 6.63338 12.5 6.16667V3.83333Z" stroke="#9D9C9C" stroke-width="2" stroke-linecap="round" stroke-linejoin="round"/>
</svg>
