<svg width="20" height="20" viewBox="0 0 20 20" fill="none" xmlns="http://www.w3.org/2000/svg">
<g clip-path="url(#clip0_11_2408)">
<path d="M14.2858 7.14275V9.9999C14.2858 10.3788 14.4363 10.7421 14.7042 11.01C14.9721 11.278 15.3355 11.4285 15.7144 11.4285H16.4286M16.4286 11.4285C17.1864 11.4285 17.9131 11.1274 18.4489 10.5916C18.9848 10.0558 19.2858 9.32909 19.2858 8.57132V4.28561C19.2858 3.90673 19.1353 3.54337 18.8674 3.27546C18.5995 3.00755 18.2361 2.85704 17.8572 2.85704H15.7144C15.2623 2.8566 14.8167 2.74889 14.4144 2.54275C13.0504 1.83095 11.5384 1.44928 10.0001 1.42847C8.45203 1.44481 6.92974 1.8266 5.55721 2.54275C5.16222 2.74123 4.72776 2.84862 4.28578 2.85704H2.14293C1.76405 2.85704 1.40068 3.00755 1.13277 3.27546C0.864865 3.54337 0.714355 3.90673 0.714355 4.28561V8.57132C0.714355 9.32909 1.01538 10.0558 1.55119 10.5916C2.08701 11.1274 2.81374 11.4285 3.5715 11.4285M16.4286 11.4285L15.9858 13.6713C15.7134 15.0587 14.9675 16.3084 13.8757 17.2066C12.7839 18.1049 11.4139 18.5961 10.0001 18.5961C8.58621 18.5961 7.21626 18.1049 6.12444 17.2066C5.03263 16.3084 4.28676 15.0587 4.01436 13.6713L3.5715 11.4285M3.5715 11.4285H4.28578C4.66466 11.4285 5.02803 11.278 5.29594 11.01C5.56385 10.7421 5.71436 10.3788 5.71436 9.9999V7.14275M9.28578 14.2856H10.7144" stroke="#9D9C9C" stroke-width="2" stroke-linecap="round" stroke-linejoin="round"/>
</g>
<defs>
<clipPath id="clip0_11_2408">
<rect width="20" height="20" fill="white"/>
</clipPath>
</defs>
</svg>
