<svg width="20" height="20" viewBox="0 0 20 20" fill="none" xmlns="http://www.w3.org/2000/svg">
<g clip-path="url(#clip0_3812_185)">
<path d="M5.0786 9.35741C5.0268 9.0236 4.99993 8.68163 4.99993 8.33341C4.99993 4.65152 8.00433 1.66675 11.7105 1.66675C15.4166 1.66675 18.421 4.65152 18.421 8.33341C18.421 9.16514 18.2677 9.96129 17.9876 10.6955C17.9294 10.848 17.9003 10.9242 17.8871 10.9838C17.874 11.0427 17.869 11.0842 17.8676 11.1446C17.8661 11.2056 17.8744 11.2727 17.8909 11.407L18.2264 14.1322C18.2627 14.4272 18.2809 14.5747 18.2318 14.6819C18.1888 14.7759 18.1125 14.8505 18.0175 14.8913C17.9092 14.9379 17.7621 14.9164 17.4681 14.8733L14.8137 14.4842C14.6751 14.4639 14.6058 14.4537 14.5427 14.4541C14.4802 14.4544 14.437 14.459 14.3759 14.4719C14.3142 14.4849 14.2353 14.5144 14.0774 14.5735C13.3414 14.8492 12.5436 15.0001 11.7105 15.0001C11.362 15.0001 11.0197 14.9737 10.6855 14.9228M6.35961 18.3334C8.83036 18.3334 10.8333 16.2814 10.8333 13.7501C10.8333 11.2188 8.83036 9.16675 6.35961 9.16675C3.88886 9.16675 1.88592 11.2188 1.88592 13.7501C1.88592 14.2589 1.96686 14.7484 2.11625 15.2057C2.1794 15.399 2.21098 15.4957 2.22134 15.5617C2.23216 15.6306 2.23406 15.6693 2.23003 15.739C2.22617 15.8057 2.20947 15.8812 2.17608 16.032L1.66663 18.3334L4.16229 17.9926C4.29851 17.974 4.36662 17.9647 4.4261 17.9651C4.48873 17.9655 4.52196 17.9689 4.58338 17.9811C4.64171 17.9928 4.72843 18.0234 4.90185 18.0846C5.35879 18.2458 5.84922 18.3334 6.35961 18.3334Z" stroke="#9747FF" stroke-width="2" stroke-linecap="round" stroke-linejoin="round"/>
</g>
<defs>
<clipPath id="clip0_3812_185">
<rect width="20" height="20" fill="white"/>
</clipPath>
</defs>
</svg>
