<svg viewBox="0 0 20 20" xmlns="http://www.w3.org/2000/svg">
<path fill-rule="evenodd" clip-rule="evenodd" d="M9.99996 18.3333C14.6025 18.3333 18.3333 14.6025 18.3333 9.99996C18.3333 5.39746 14.6025 1.66663 9.99996 1.66663C5.39746 1.66663 1.66663 5.39746 1.66663 9.99996C1.66663 14.6025 5.39746 18.3333 9.99996 18.3333ZM14.714 14.714C15.9642 13.4638 16.6666 11.7681 16.6666 9.99996C16.6666 8.23185 15.9642 6.53616 14.714 5.28591C13.4638 4.03567 11.7681 3.33329 9.99996 3.33329C8.23185 3.33329 6.53616 4.03567 5.28591 5.28591C4.03567 6.53616 3.33329 8.23185 3.33329 9.99996C3.33329 11.7681 4.03567 13.4638 5.28591 14.714C6.53616 15.9642 8.23185 16.6666 9.99996 16.6666C11.7681 16.6666 13.4638 15.9642 14.714 14.714ZM12.357 13.1904C11.7319 13.8155 10.884 14.1667 9.99996 14.1667C9.1159 14.1667 8.26806 13.8155 7.64294 13.1904C7.01782 12.5652 6.66663 11.7174 6.66663 10.8333H13.3333C13.3333 11.7174 12.9821 12.5652 12.357 13.1904ZM8.08921 8.92259C8.24549 8.76631 8.33329 8.55435 8.33329 8.33333C8.33329 8.11232 8.24549 7.90036 8.08921 7.74408C7.93293 7.5878 7.72097 7.5 7.49996 7.5C7.27895 7.5 7.06698 7.5878 6.9107 7.74408C6.75442 7.90036 6.66663 8.11232 6.66663 8.33333C6.66663 8.55435 6.75442 8.76631 6.9107 8.92259C7.06698 9.07887 7.27895 9.16667 7.49996 9.16667C7.72097 9.16667 7.93293 9.07887 8.08921 8.92259ZM13.0892 8.92259C12.9329 9.07887 12.721 9.16667 12.5 9.16667C12.2789 9.16667 12.067 9.07887 11.9107 8.92259C11.7544 8.76631 11.6666 8.55435 11.6666 8.33333C11.6666 8.11232 11.7544 7.90036 11.9107 7.74408C12.067 7.5878 12.2789 7.5 12.5 7.5C12.721 7.5 12.9329 7.5878 13.0892 7.74408C13.2455 7.90036 13.3333 8.11232 13.3333 8.33333C13.3333 8.55435 13.2455 8.76631 13.0892 8.92259Z" />
</svg>
