<svg width="20" height="20" viewBox="0 0 20 20" fill="none" xmlns="http://www.w3.org/2000/svg">
<path d="M3 16.6674V16.6667V5.00008C3 4.67554 3.10982 4.40987 3.34355 4.17613C3.57727 3.94242 3.84247 3.83302 4.16606 3.83341H4.16667H5H5.5V3.33341V2.47925C5.5 2.36949 5.53129 2.30911 5.5853 2.25754C5.64585 2.19971 5.71722 2.16675 5.83333 2.16675C5.94326 2.16675 6.01216 2.19852 6.07395 2.2603C6.13567 2.32202 6.16693 2.39027 6.16667 2.4989V2.50008V3.33341V3.83341H6.66667H13.3333H13.8333V3.33341V2.47925C13.8333 2.36949 13.8646 2.30911 13.9186 2.25754C13.9792 2.19971 14.0506 2.16675 14.1667 2.16675C14.2766 2.16675 14.3455 2.19852 14.4073 2.2603C14.469 2.32202 14.5003 2.39027 14.5 2.4989V2.50008V3.33341V3.83341H15H15.8333C16.1579 3.83341 16.4235 3.94323 16.6573 4.17697C16.891 4.41069 17.0004 4.67588 17 4.99947V5.00008V16.6667C17 16.9913 16.8902 17.257 16.6564 17.4907C16.4227 17.7244 16.1575 17.8338 15.8339 17.8334H15.8333H4.16667C3.84212 17.8334 3.57646 17.7236 3.34272 17.4899C3.109 17.2561 2.99961 16.9909 3 16.6674ZM3.66667 16.6667V17.1667H4.16667H15.8333H16.3333V16.6667V8.33341V7.83341H15.8333H4.16667H3.66667V8.33341V16.6667ZM3.66667 6.66675V7.16675H4.16667H15.8333H16.3333V6.66675V5.00008V4.50008H15.8333H4.16667H3.66667V5.00008V6.66675ZM6.66667 2.50008V2.83341V3.33341H7.16667H12.8333H13.3333V2.83341V2.47925C13.3333 2.24314 13.4133 2.04869 13.5733 1.89591C13.7333 1.74314 13.9311 1.66675 14.1667 1.66675C14.4028 1.66675 14.6008 1.74675 14.7608 1.90675C14.9208 2.06675 15.0006 2.26453 15 2.50008H6.66667ZM15.5 3.33341H15.8333C16.2917 3.33341 16.6842 3.49675 17.0108 3.82341C17.3375 4.15008 17.5006 4.5423 17.5 5.00008V16.6667C17.5 17.1251 17.3367 17.5176 17.01 17.8442C16.6833 18.1709 16.2911 18.334 15.8333 18.3334H4.16667C3.70833 18.3334 3.31583 18.1701 2.98917 17.8434C2.6625 17.5167 2.49945 17.1245 2.5 16.6667L15.5 3.33341Z" stroke="#9D9C9C"/>
</svg>
