<svg width="20" height="20" viewBox="0 0 20 20" fill="none" xmlns="http://www.w3.org/2000/svg">
<path d="M5.34575 7.50385C5.2685 7.58095 5.20721 7.67252 5.16539 7.77333C5.12358 7.87415 5.10205 7.98221 5.10205 8.09135C5.10205 8.2005 5.12358 8.30856 5.16539 8.40938C5.20721 8.51019 5.2685 8.60176 5.34575 8.67885L9.17075 12.5039C9.24785 12.5811 9.33942 12.6424 9.44023 12.6842C9.54105 12.726 9.64911 12.7476 9.75825 12.7476C9.86739 12.7476 9.97546 12.726 10.0763 12.6842C10.1771 12.6424 10.2687 12.5811 10.3458 12.5039L14.1708 8.67885C14.2479 8.6017 14.3091 8.51011 14.3509 8.40931C14.3926 8.3085 14.4141 8.20046 14.4141 8.09135C14.4141 7.98225 14.3926 7.87421 14.3509 7.7734C14.3091 7.6726 14.2479 7.58101 14.1708 7.50385C14.0936 7.4267 14.002 7.3655 13.9012 7.32375C13.8004 7.28199 13.6924 7.2605 13.5833 7.2605C13.4741 7.2605 13.3661 7.28199 13.2653 7.32375C13.1645 7.3655 13.0729 7.4267 12.9958 7.50385L9.75409 10.7372L6.52075 7.50385C6.19575 7.17885 5.66242 7.18719 5.34575 7.50385Z" fill="#49494B"/>
</svg>
