<svg width="20" height="20" viewBox="0 0 20 20" fill="none" xmlns="http://www.w3.org/2000/svg">
<path d="M6.16667 13.3333L8.70833 10.7917L10.375 12.4583L13.3333 9.52083V10.8333H15V6.66667H10.8333V8.33333H12.1458L10.375 10.1042L8.70833 8.4375L5 12.1667L6.16667 13.3333ZM4.16667 17.5C3.70833 17.5 3.31583 17.3367 2.98917 17.01C2.6625 16.6833 2.49945 16.2911 2.5 15.8333V4.16667C2.5 3.70833 2.66333 3.31583 2.99 2.98917C3.31667 2.6625 3.70889 2.49945 4.16667 2.5H15.8333C16.2917 2.5 16.6842 2.66333 17.0108 2.99C17.3375 3.31667 17.5006 3.70889 17.5 4.16667V15.8333C17.5 16.2917 17.3367 16.6842 17.01 17.0108C16.6833 17.3375 16.2911 17.5006 15.8333 17.5H4.16667ZM4.16667 15.8333H15.8333V4.16667H4.16667V15.8333Z" />
</svg>
