<svg width="20" height="20" viewBox="0 0 20 20" fill="none" xmlns="http://www.w3.org/2000/svg">
<g id="ic_double chevron">
<path id="Vector" d="M14.7558 4.41083C14.912 4.5671 14.9998 4.77902 14.9998 4.99999C14.9998 5.22097 14.912 5.43289 14.7558 5.58916L10.345 10L14.7558 14.4108C14.9076 14.568 14.9916 14.7785 14.9897 14.997C14.9878 15.2155 14.9002 15.4245 14.7457 15.579C14.5912 15.7335 14.3821 15.8212 14.1637 15.8231C13.9452 15.825 13.7347 15.741 13.5775 15.5892L8.57748 10.5892C8.42126 10.4329 8.3335 10.221 8.3335 10C8.3335 9.77903 8.42126 9.5671 8.57748 9.41083L13.5775 4.41083C13.7338 4.2546 13.9457 4.16684 14.1667 4.16684C14.3876 4.16684 14.5995 4.2546 14.7558 4.41083ZM9.75582 4.41083C9.91204 4.5671 9.99981 4.77902 9.99981 4.99999C9.99981 5.22097 9.91204 5.43289 9.75582 5.58916L5.34498 10L9.75582 14.4108C9.90762 14.568 9.99161 14.7785 9.98971 14.997C9.98781 15.2155 9.90017 15.4245 9.74567 15.579C9.59116 15.7335 9.38215 15.8212 9.16365 15.8231C8.94515 15.825 8.73465 15.741 8.57748 15.5892L3.57748 10.5892C3.42126 10.4329 3.3335 10.221 3.3335 10C3.3335 9.77903 3.42126 9.5671 3.57748 9.41083L8.57748 4.41083C8.73376 4.2546 8.94568 4.16684 9.16665 4.16684C9.38762 4.16684 9.59954 4.2546 9.75582 4.41083Z" fill="white"/>
</g>
</svg>
