<svg width="20" height="20" viewBox="0 0 20 20" fill="none" xmlns="http://www.w3.org/2000/svg">
<path d="M3.33317 16.6666C2.87484 16.6666 2.48234 16.5033 2.15567 16.1766C1.82901 15.8499 1.66595 15.4577 1.66651 14.9999V4.99992C1.66651 4.54159 1.82984 4.14909 2.15651 3.82242C2.48317 3.49575 2.87539 3.3327 3.33317 3.33325H16.6665C17.1248 3.33325 17.5173 3.49659 17.844 3.82325C18.1707 4.14992 18.3337 4.54214 18.3332 4.99992V14.9999C18.3332 15.4583 18.1698 15.8508 17.8432 16.1774C17.5165 16.5041 17.1243 16.6671 16.6665 16.6666H3.33317ZM16.6665 6.66659L10.4373 10.5624C10.3679 10.6041 10.2948 10.6355 10.2182 10.6566C10.1415 10.6777 10.0687 10.688 9.99984 10.6874C9.93039 10.6874 9.85734 10.6771 9.78067 10.6566C9.70401 10.636 9.63123 10.6046 9.56234 10.5624L3.33317 6.66659V14.9999H16.6665V6.66659ZM9.99984 9.16659L16.6665 4.99992H3.33317L9.99984 9.16659ZM3.33317 6.87492V5.64575V5.66659V5.65659V6.87492Z" fill="#9D9C9C"/>
</svg>
