<svg width="20" height="20" viewBox="0 0 20 20" fill="none" xmlns="http://www.w3.org/2000/svg">
<path d="M10 18.5C8.9 18.5 7.8 18.3 6.7 17.9C5.7 17.5 4.7 16.9 3.9 16.1C3.1 15.3 2.5 14.4 2.1 13.3C1.7 12.3 1.5 11.2 1.5 10C1.5 7.7 2.4 5.6 4 4C5.6 2.4 7.7 1.5 10 1.5C12.3 1.5 14.4 2.4 16 4C17.6 5.6 18.5 7.7 18.5 10C18.5 11.1 18.3 12.2 17.9 13.3C17.5 14.3 16.9 15.3 16.1 16.1C15.3 16.9 14.4 17.5 13.3 17.9C12.2 18.3 11.1 18.5 10 18.5ZM6.2 15.2C6.6 15.6 7 15.8 7.5 16C9.1 16.7 10.9 16.7 12.5 16C13 15.8 13.4 15.5 13.8 15.2L12.2 13.6C10.8 14.4 9 14.4 7.6 13.6L6.2 15.2ZM13.7 12.3L15.3 13.9C15.6 13.5 15.9 13 16.1 12.6C16.4 11.8 16.6 11 16.6 10.1C16.6 8.7 16.2 7.4 15.4 6.3L13.8 7.9C14.2 8.6 14.4 9.4 14.4 10.2C14.4 11 14.1 11.6 13.7 12.3ZM4.8 6.2C3.9 7.3 3.5 8.6 3.5 10C3.5 10.9 3.7 11.7 4 12.5C4.2 13 4.5 13.4 4.8 13.8L6.4 12.2C6 11.5 5.8 10.7 5.8 9.9C5.8 9.1 6 8.3 6.4 7.6L4.8 6.2ZM10 7.7C9.4 7.7 8.8 7.9 8.4 8.4C8 8.9 7.7 9.4 7.7 10C7.7 10.6 7.9 11.2 8.4 11.7C9.3 12.6 10.8 12.6 11.7 11.7C12.1 11.3 12.4 10.7 12.4 10.1C12.4 9.5 12.2 8.9 11.7 8.5C11.2 7.9 10.6 7.7 10 7.7ZM10 5.7C10.8 5.7 11.6 5.9 12.3 6.3L13.9 4.7C11.7 3.1 8.4 3.1 6.2 4.7L7.8 6.3C8.4 5.9 9.2 5.7 10 5.7Z"/>
</svg>
