<svg width="20" height="20" viewBox="0 0 20 20" xmlns="http://www.w3.org/2000/svg">
<path d="M3.33329 16.6666C2.87496 16.6666 2.48246 16.5033 2.15579 16.1766C1.82913 15.8499 1.66607 15.4577 1.66663 14.9999V4.99992C1.66663 4.54159 1.82996 4.14909 2.15663 3.82242C2.48329 3.49575 2.87552 3.3327 3.33329 3.33325H16.6666C17.125 3.33325 17.5175 3.49659 17.8441 3.82325C18.1708 4.14992 18.3338 4.54214 18.3333 4.99992V14.9999C18.3333 15.4583 18.17 15.8508 17.8433 16.1774C17.5166 16.5041 17.1244 16.6671 16.6666 16.6666H3.33329ZM16.6666 6.66659L10.4375 10.5624C10.368 10.6041 10.295 10.6355 10.2183 10.6566C10.1416 10.6777 10.0688 10.688 9.99996 10.6874C9.93052 10.6874 9.85746 10.6771 9.78079 10.6566C9.70413 10.636 9.63135 10.6046 9.56246 10.5624L3.33329 6.66659V14.9999H16.6666V6.66659ZM9.99996 9.16659L16.6666 4.99992H3.33329L9.99996 9.16659ZM3.33329 6.87492V5.64575V5.66659V5.65659V6.87492Z" />
</svg>
