<svg width="20" height="20" viewBox="0 0 20 20" fill="none" xmlns="http://www.w3.org/2000/svg">
<path d="M7.94872 17.2308L7.24161 17.9379L7.94874 18.645L8.65584 17.9378L7.94872 17.2308ZM2.64539 11.9274L1.93826 11.2203L1.23119 11.9274L1.93828 12.6345L2.64539 11.9274ZM9.83414 1.79239C9.44361 1.40187 8.81044 1.40189 8.41993 1.79242C8.02941 2.18296 8.02943 2.81612 8.41996 3.20664L9.83414 1.79239ZM16.67 11.4562C17.0605 11.8467 17.6937 11.8467 18.0842 11.4562C18.4747 11.0656 18.4747 10.4325 18.0841 10.042L16.67 11.4562ZM6.88791 11.2203C6.49738 10.8298 5.86422 10.8298 5.4737 11.2203C5.08317 11.6108 5.08317 12.244 5.4737 12.6345L6.88791 11.2203ZM7.24161 14.4025C7.63214 14.793 8.2653 14.793 8.65583 14.4025C9.04635 14.0119 9.04635 13.3788 8.65583 12.9882L7.24161 14.4025ZM1.9387 16.5232C1.54817 16.9138 1.54817 17.5469 1.9387 17.9375C2.32922 18.328 2.96238 18.328 3.35291 17.9375L1.9387 16.5232ZM6.00416 15.2862C6.39468 14.8957 6.39468 14.2625 6.00416 13.872C5.61364 13.4815 4.98047 13.4815 4.58995 13.872L6.00416 15.2862ZM12.5448 5.91709C12.1544 6.30767 12.1545 6.94083 12.545 7.3313C12.9356 7.72177 13.5688 7.72168 13.9593 7.3311L12.5448 5.91709ZM15.4318 5.85819C15.8222 5.46761 15.8221 4.83444 15.4316 4.44397C15.041 4.0535 14.4078 4.05359 14.0173 4.44417L15.4318 5.85819ZM15.1962 8.56867L7.24159 16.5237L8.65584 17.9378L16.6104 9.98285L15.1962 8.56867ZM8.65583 16.5237L3.35249 11.2203L1.93828 12.6345L7.24161 17.9379L8.65583 16.5237ZM3.35251 12.6345L11.3071 4.67952L9.89284 3.26534L1.93826 11.2203L3.35251 12.6345ZM8.41996 3.20664L16.67 11.4562L18.0841 10.042L9.83414 1.79239L8.41996 3.20664ZM5.4737 12.6345L7.24161 14.4025L8.65583 12.9882L6.88791 11.2203L5.4737 12.6345ZM3.35291 17.9375L6.00416 15.2862L4.58995 13.872L1.9387 16.5232L3.35291 17.9375ZM13.9593 7.3311L15.4318 5.85819L14.0173 4.44417L12.5448 5.91709L13.9593 7.3311Z" fill="#FF9447"/>
</svg>
