<svg width="20" height="20" viewBox="0 0 20 20" fill="none" xmlns="http://www.w3.org/2000/svg">
<path d="M14.3383 3.79071L15.1899 2.9375H13.9844H13.125C13.009 2.9375 12.8977 2.89141 12.8156 2.80936C12.7336 2.72731 12.6875 2.61603 12.6875 2.5C12.6875 2.38397 12.7336 2.27269 12.8156 2.19064C12.8977 2.10859 13.009 2.0625 13.125 2.0625H16.25C16.366 2.0625 16.4773 2.10859 16.5594 2.19064C16.6414 2.27269 16.6875 2.38397 16.6875 2.5V5.625C16.6875 5.74103 16.6414 5.85231 16.5594 5.93436C16.4773 6.01641 16.366 6.0625 16.25 6.0625C16.134 6.0625 16.0227 6.01641 15.9406 5.93436C15.8586 5.85231 15.8125 5.74103 15.8125 5.625V4.76562V3.55952L14.9592 4.41186L13.6232 5.74624L13.3516 6.01754L13.5436 6.35C13.9296 7.01855 14.1489 7.77023 14.1829 8.54146C14.217 9.31269 14.0648 10.0808 13.7392 10.7808C13.4137 11.4807 12.9243 12.092 12.3126 12.5629C11.7008 13.0337 10.9847 13.3503 10.2247 13.4859L9.81251 13.5594V13.9781V14.6875V15.1875H10.3125H11.875C11.991 15.1875 12.1023 15.2336 12.1844 15.3156C12.2664 15.3977 12.3125 15.509 12.3125 15.625C12.3125 15.741 12.2664 15.8523 12.1844 15.9344C12.1023 16.0164 11.991 16.0625 11.875 16.0625H10.3125H9.81251V16.5625V18.125C9.81251 18.241 9.76641 18.3523 9.68437 18.4344C9.60232 18.5164 9.49104 18.5625 9.37501 18.5625C9.25898 18.5625 9.1477 18.5164 9.06565 18.4344C8.9836 18.3523 8.93751 18.241 8.93751 18.125V16.5625V16.0625H8.43751H6.87501C6.75898 16.0625 6.6477 16.0164 6.56565 15.9344C6.4836 15.8523 6.43751 15.741 6.43751 15.625C6.43751 15.509 6.4836 15.3977 6.56565 15.3156C6.6477 15.2336 6.75898 15.1875 6.87501 15.1875H8.43751H8.93751V14.6875V13.9781V13.5592L8.52501 13.4858C7.79945 13.3569 7.1132 13.063 6.51917 12.6269C5.92514 12.1908 5.4392 11.6241 5.09882 10.9705C4.75843 10.3169 4.5727 9.59382 4.55593 8.85709C4.53917 8.12035 4.69182 7.3896 5.00212 6.72119C5.31242 6.05277 5.77208 5.46455 6.34566 5.00187C6.91924 4.53919 7.59141 4.21441 8.31035 4.05258C9.02929 3.89075 9.77579 3.89618 10.4923 4.06847C11.2088 4.24076 11.8762 4.57529 12.4429 5.04627L12.794 5.33797L13.1164 5.01493L14.3383 3.79071ZM9.37501 12.6875H9.37558C10.4194 12.6863 11.42 12.2712 12.1581 11.5331C12.8962 10.795 13.3113 9.79434 13.3125 8.75057V8.75C13.3125 7.97124 13.0816 7.20996 12.6489 6.56244C12.2163 5.91492 11.6013 5.41024 10.8818 5.11222C10.1623 4.8142 9.37064 4.73623 8.60684 4.88816C7.84304 5.04009 7.14144 5.4151 6.59077 5.96577C6.04011 6.51644 5.6651 7.21803 5.51317 7.98183C5.36124 8.74563 5.43921 9.53733 5.73723 10.2568C6.03525 10.9763 6.53993 11.5913 7.18745 12.0239C7.83497 12.4566 8.59624 12.6875 9.37501 12.6875Z" stroke="#9D9C9C"/>
</svg>
