<svg width="20" height="20" viewBox="0 0 20 20" xmlns="http://www.w3.org/2000/svg">
<path d="M16.6667 7.91668V6.00001C16.6667 5.06659 16.6667 4.59988 16.485 4.24336C16.3252 3.92976 16.0703 3.67479 15.7567 3.515C15.4002 3.33335 14.9334 3.33335 14 3.33334H4.33335C3.39993 3.33334 2.93322 3.33334 2.5767 3.515C2.2631 3.67479 2.00813 3.92976 1.84834 4.24336C1.66669 4.59988 1.66669 5.06659 1.66669 6.00001V14C1.66669 14.9334 1.66669 15.4001 1.84834 15.7567C2.00813 16.0703 2.2631 16.3252 2.5767 16.485C2.93322 16.6667 3.39993 16.6667 4.33335 16.6667L14 16.6667C14.9334 16.6667 15.4002 16.6667 15.7567 16.485C16.0703 16.3252 16.3252 16.0703 16.485 15.7567C16.6667 15.4001 16.6667 14.9334 16.6667 14V12.0833M12.5 10C12.5 9.6128 12.5 9.41919 12.532 9.25819C12.6636 8.59704 13.1804 8.08021 13.8415 7.9487C14.0025 7.91668 14.1961 7.91668 14.5834 7.91668H16.25C16.6372 7.91668 16.8308 7.91668 16.9918 7.9487C17.653 8.08021 18.1698 8.59704 18.3013 9.25819C18.3334 9.41919 18.3334 9.6128 18.3334 10C18.3334 10.3872 18.3334 10.5808 18.3013 10.7418C18.1698 11.403 17.653 11.9198 16.9918 12.0513C16.8308 12.0833 16.6372 12.0833 16.25 12.0833H14.5834C14.1961 12.0833 14.0025 12.0833 13.8415 12.0513C13.1804 11.9198 12.6636 11.403 12.532 10.7418C12.5 10.5808 12.5 10.3872 12.5 10Z" stroke-width="2" stroke-linecap="round" stroke-linejoin="round"/>
</svg>
