<svg width="16" height="16" viewBox="0 0 16 16" fill="none" xmlns="http://www.w3.org/2000/svg">
<g clip-path="url(#clip0_3812_546)">
<path d="M3.81084 13.2257C4.21639 12.2702 5.16326 11.6001 6.26664 11.6001H10.2666C11.37 11.6001 12.3169 12.2702 12.7224 13.2257M10.9333 6.6001C10.9333 8.07286 9.7394 9.26676 8.26664 9.26676C6.79388 9.26676 5.59998 8.07286 5.59998 6.6001C5.59998 5.12734 6.79388 3.93343 8.26664 3.93343C9.7394 3.93343 10.9333 5.12734 10.9333 6.6001ZM14.9333 8.26676C14.9333 11.9487 11.9485 14.9334 8.26664 14.9334C4.58474 14.9334 1.59998 11.9487 1.59998 8.26676C1.59998 4.58487 4.58474 1.6001 8.26664 1.6001C11.9485 1.6001 14.9333 4.58487 14.9333 8.26676Z" stroke="#FF9447" stroke-width="2" stroke-linecap="round" stroke-linejoin="round"/>
</g>
<defs>
<clipPath id="clip0_3812_546">
<rect width="16" height="16" fill="white"/>
</clipPath>
</defs>
</svg>
