<svg width="37" height="36" viewBox="0 0 37 36" fill="none" xmlns="http://www.w3.org/2000/svg">
<g clip-path="url(#clip0_3590_253)">
<path fill-rule="evenodd" clip-rule="evenodd" d="M12.8431 0C10.8124 0 8.86487 0.806703 7.42893 2.24264L0.5 9.17153V12.3431C0.5 14.5839 1.4625 16.5998 2.99661 18C1.4625 19.4002 0.5 21.4161 0.5 23.6568V26.8284L7.42893 33.7574C8.86487 35.1933 10.8124 36 12.8431 36C15.0839 36 17.0998 35.0375 18.5 33.5034C19.9002 35.0375 21.9161 36 24.1569 36C26.1876 36 28.1351 35.1933 29.5711 33.7574L36.5 26.8284V23.6568C36.5 21.4161 35.5375 19.4002 34.0034 18C35.5375 16.5998 36.5 14.5839 36.5 12.3431V9.17153L29.5711 2.24264C28.1351 0.806703 26.1876 0 24.1569 0C21.9161 0 19.9002 0.962493 18.5 2.49661C17.0998 0.962493 15.0839 0 12.8431 0ZM23.6829 18C23.5966 17.9212 23.5119 17.8403 23.4289 17.7573L18.5 12.8284L13.5711 17.7573C13.4881 17.8403 13.4034 17.9212 13.3171 18C13.4034 18.0787 13.4881 18.1596 13.5711 18.2426L18.5 23.1716L23.4289 18.2426C23.5119 18.1596 23.5966 18.0787 23.6829 18ZM20.5 26.8284V28.3431C20.5 30.3627 22.1373 32 24.1569 32C25.1267 32 26.0569 31.6147 26.7426 30.9289L32.5 25.1715V23.6568C32.5 21.6372 30.8628 20 28.8432 20C27.8733 20 26.9432 20.3853 26.2574 21.0711L20.5 26.8284ZM16.5 26.8284L10.7426 21.0711C10.0568 20.3853 9.12672 20 8.15686 20C6.13723 20 4.5 21.6372 4.5 23.6568V25.1715L10.2573 30.9289C10.9431 31.6147 11.8733 32 12.8431 32C14.8627 32 16.5 30.3627 16.5 28.3431V26.8284ZM16.5 7.65686V9.17153L10.7426 14.9289C10.0568 15.6147 9.12672 16 8.15686 16C6.13723 16 4.5 14.3627 4.5 12.3431V10.8284L10.2573 5.07107C10.9431 4.38527 11.8733 4 12.8431 4C14.8627 4 16.5 5.63723 16.5 7.65686ZM26.2574 14.9289L20.5 9.17153V7.65686C20.5 5.63723 22.1373 4 24.1569 4C25.1267 4 26.0569 4.38527 26.7426 5.07107L32.5 10.8284V12.3431C32.5 14.3627 30.8628 16 28.8432 16C27.8733 16 26.9432 15.6147 26.2574 14.9289Z" fill="#FF630B"/>
</g>
<defs>
<clipPath id="clip0_3590_253">
<rect width="36" height="36" fill="white" transform="translate(0.5)"/>
</clipPath>
</defs>
</svg>
