<svg width="36" height="36" viewBox="0 0 36 36" fill="none" xmlns="http://www.w3.org/2000/svg">
<rect width="36" height="36" rx="18" fill="#F2F2F1"/>
<path d="M15.4999 22.1667V23C15.4999 23.663 15.7633 24.2989 16.2322 24.7678C16.701 25.2366 17.3369 25.5 17.9999 25.5C18.663 25.5 19.2988 25.2366 19.7677 24.7678C20.2365 24.2989 20.4999 23.663 20.4999 23V22.1667M16.3333 12.1667C16.3333 11.7246 16.5088 11.3007 16.8214 10.9882C17.134 10.6756 17.5579 10.5 17.9999 10.5C18.4419 10.5 18.8659 10.6756 19.1784 10.9882C19.491 11.3007 19.6666 11.7246 19.6666 12.1667C20.6236 12.6192 21.4394 13.3236 22.0266 14.2044C22.6138 15.0852 22.9503 16.1092 22.9999 17.1667V19.6667C23.0626 20.1848 23.2461 20.6809 23.5356 21.1151C23.8251 21.5493 24.2125 21.9095 24.6666 22.1667H11.3333C11.7874 21.9095 12.1748 21.5493 12.4642 21.1151C12.7537 20.6809 12.9372 20.1848 12.9999 19.6667V17.1667C13.0496 16.1092 13.386 15.0852 13.9732 14.2044C14.5604 13.3236 15.3762 12.6192 16.3333 12.1667Z" stroke="#1C1C1E" stroke-width="2" stroke-linecap="round" stroke-linejoin="round"/>
<path d="M15.4999 22.1667V23C15.4999 23.663 15.7633 24.2989 16.2322 24.7678C16.701 25.2366 17.3369 25.5 17.9999 25.5C18.663 25.5 19.2988 25.2366 19.7677 24.7678C20.2365 24.2989 20.4999 23.663 20.4999 23V22.1667M16.3333 12.1667C16.3333 11.7246 16.5088 11.3007 16.8214 10.9882C17.134 10.6756 17.5579 10.5 17.9999 10.5C18.4419 10.5 18.8659 10.6756 19.1784 10.9882C19.491 11.3007 19.6666 11.7246 19.6666 12.1667C20.6236 12.6192 21.4394 13.3236 22.0266 14.2044C22.6138 15.0852 22.9503 16.1092 22.9999 17.1667V19.6667C23.0626 20.1848 23.2461 20.6809 23.5356 21.1151C23.8251 21.5493 24.2125 21.9095 24.6666 22.1667H11.3333C11.7874 21.9095 12.1748 21.5493 12.4642 21.1151C12.7537 20.6809 12.9372 20.1848 12.9999 19.6667V17.1667C13.0496 16.1092 13.386 15.0852 13.9732 14.2044C14.5604 13.3236 15.3762 12.6192 16.3333 12.1667Z" stroke="white" stroke-opacity="0.2" stroke-width="2" stroke-linecap="round" stroke-linejoin="round"/>
</svg>
