<svg width="36" height="36" viewBox="0 0 36 36" fill="none" xmlns="http://www.w3.org/2000/svg">
<rect width="36" height="36" rx="18" fill="#FFE0CE"/>
<path d="M19.9044 13.9448L19.9048 13.9452C20.0295 14.0698 20.0313 14.2866 19.9048 14.4131L16.6715 17.6464L16.3184 17.9995L16.671 18.353L19.9043 21.5947L19.9048 21.5952C19.9355 21.6259 19.9599 21.6624 19.9765 21.7025C19.9931 21.7426 20.0017 21.7857 20.0017 21.8291C20.0017 21.8726 19.9931 21.9156 19.9765 21.9557C19.9599 21.9959 19.9355 22.0323 19.9048 22.063C19.8741 22.0938 19.8376 22.1181 19.7975 22.1348C19.7573 22.1514 19.7143 22.16 19.6709 22.16C19.6274 22.16 19.5844 22.1514 19.5442 22.1348C19.5041 22.1181 19.4676 22.0938 19.4369 22.0631L15.6119 18.2381L15.6115 18.2377C15.5808 18.207 15.5565 18.1706 15.5398 18.1305C15.5232 18.0905 15.5146 18.0475 15.5146 18.0041C15.5146 17.9607 15.5232 17.9177 15.5398 17.8777C15.5565 17.8376 15.5808 17.8012 15.6115 17.7705L15.6119 17.7702L19.4369 13.9452L19.4373 13.9448C19.4679 13.9141 19.5043 13.8897 19.5444 13.8731C19.5845 13.8565 19.6275 13.8479 19.6709 13.8479C19.7142 13.8479 19.7572 13.8565 19.7973 13.8731C19.8374 13.8897 19.8738 13.9141 19.9044 13.9448Z" fill="black"/>
<path d="M19.9044 13.9448L19.9048 13.9452C20.0295 14.0698 20.0313 14.2866 19.9048 14.4131L16.6715 17.6464L16.3184 17.9995L16.671 18.353L19.9043 21.5947L19.9048 21.5952C19.9355 21.6259 19.9599 21.6624 19.9765 21.7025C19.9931 21.7426 20.0017 21.7857 20.0017 21.8291C20.0017 21.8726 19.9931 21.9156 19.9765 21.9557C19.9599 21.9959 19.9355 22.0323 19.9048 22.063C19.8741 22.0938 19.8376 22.1181 19.7975 22.1348C19.7573 22.1514 19.7143 22.16 19.6709 22.16C19.6274 22.16 19.5844 22.1514 19.5442 22.1348C19.5041 22.1181 19.4676 22.0938 19.4369 22.0631L15.6119 18.2381L15.6115 18.2377C15.5808 18.207 15.5565 18.1706 15.5398 18.1305C15.5232 18.0905 15.5146 18.0475 15.5146 18.0041C15.5146 17.9607 15.5232 17.9177 15.5398 17.8777C15.5565 17.8376 15.5808 17.8012 15.6115 17.7705L15.6119 17.7702L19.4369 13.9452L19.4373 13.9448C19.4679 13.9141 19.5043 13.8897 19.5444 13.8731C19.5845 13.8565 19.6275 13.8479 19.6709 13.8479C19.7142 13.8479 19.7572 13.8565 19.7973 13.8731C19.8374 13.8897 19.8738 13.9141 19.9044 13.9448Z" stroke="#FF9447"/>
<path d="M19.9044 13.9448L19.9048 13.9452C20.0295 14.0698 20.0313 14.2866 19.9048 14.4131L16.6715 17.6464L16.3184 17.9995L16.671 18.353L19.9043 21.5947L19.9048 21.5952C19.9355 21.6259 19.9599 21.6624 19.9765 21.7025C19.9931 21.7426 20.0017 21.7857 20.0017 21.8291C20.0017 21.8726 19.9931 21.9156 19.9765 21.9557C19.9599 21.9959 19.9355 22.0323 19.9048 22.063C19.8741 22.0938 19.8376 22.1181 19.7975 22.1348C19.7573 22.1514 19.7143 22.16 19.6709 22.16C19.6274 22.16 19.5844 22.1514 19.5442 22.1348C19.5041 22.1181 19.4676 22.0938 19.4369 22.0631L15.6119 18.2381L15.6115 18.2377C15.5808 18.207 15.5565 18.1706 15.5398 18.1305C15.5232 18.0905 15.5146 18.0475 15.5146 18.0041C15.5146 17.9607 15.5232 17.9177 15.5398 17.8777C15.5565 17.8376 15.5808 17.8012 15.6115 17.7705L15.6119 17.7702L19.4369 13.9452L19.4373 13.9448C19.4679 13.9141 19.5043 13.8897 19.5444 13.8731C19.5845 13.8565 19.6275 13.8479 19.6709 13.8479C19.7142 13.8479 19.7572 13.8565 19.7973 13.8731C19.8374 13.8897 19.8738 13.9141 19.9044 13.9448Z" stroke="white" stroke-opacity="0.2"/>
</svg>
