<svg width="36" height="36" viewBox="0 0 36 36" fill="none" xmlns="http://www.w3.org/2000/svg">
<rect width="36" height="36" rx="18" fill="#F2F2F1"/>
<path d="M25.1861 18.3099L25.1855 18.3105L21.9049 21.5911C21.9047 21.5913 21.9046 21.5914 21.9045 21.5915C21.8638 21.632 21.8156 21.664 21.7626 21.6858C21.7096 21.7076 21.6528 21.7188 21.5955 21.7188C21.4781 21.7181 21.3654 21.6719 21.2814 21.5899C21.2412 21.5495 21.2093 21.5017 21.1874 21.449C21.1653 21.3958 21.1539 21.3388 21.1539 21.2812C21.1539 21.2237 21.1653 21.1667 21.1874 21.1135C21.2095 21.0603 21.2418 21.012 21.2826 20.9714L21.2832 20.9707L22.9629 19.2911L23.8165 18.4375H22.6094H16.125C16.009 18.4375 15.8977 18.3914 15.8156 18.3094C15.7336 18.2273 15.6875 18.116 15.6875 18C15.6875 17.884 15.7336 17.7727 15.8156 17.6906C15.8977 17.6086 16.009 17.5625 16.125 17.5625H22.6094H23.8165L22.9629 16.7089L21.2832 15.0293C21.2009 14.9469 21.1546 14.8352 21.1546 14.7188C21.1546 14.6023 21.2009 14.4906 21.2832 14.4082C21.3656 14.3259 21.4773 14.2796 21.5938 14.2796C21.7102 14.2796 21.8219 14.3259 21.9043 14.4082L25.1855 17.6895L25.1861 17.6901C25.2269 17.7307 25.2593 17.779 25.2814 17.8322C25.3034 17.8854 25.3148 17.9424 25.3148 18C25.3148 18.0576 25.3034 18.1146 25.2814 18.1678C25.2593 18.221 25.2269 18.2693 25.1861 18.3099ZM11.5625 23.9375V24.4375H12.0625H16.125C16.241 24.4375 16.3523 24.4836 16.4344 24.5656C16.5164 24.6477 16.5625 24.759 16.5625 24.875C16.5625 24.991 16.5164 25.1023 16.4344 25.1844C16.3523 25.2664 16.241 25.3125 16.125 25.3125H11.7514C11.4698 25.3108 11.2001 25.1982 11.001 24.999C10.8018 24.7999 10.6892 24.5303 10.6875 24.2486V11.7514C10.6892 11.4697 10.8018 11.2001 11.001 11.001C11.2001 10.8018 11.4697 10.6892 11.7514 10.6875H16.125C16.241 10.6875 16.3523 10.7336 16.4344 10.8156C16.5164 10.8977 16.5625 11.009 16.5625 11.125C16.5625 11.241 16.5164 11.3523 16.4344 11.4344C16.3523 11.5164 16.241 11.5625 16.125 11.5625H12.0625H11.5625V12.0625V23.9375Z" fill="black"/>
<path d="M25.1861 18.3099L25.1855 18.3105L21.9049 21.5911C21.9047 21.5913 21.9046 21.5914 21.9045 21.5915C21.8638 21.632 21.8156 21.664 21.7626 21.6858C21.7096 21.7076 21.6528 21.7188 21.5955 21.7188C21.4781 21.7181 21.3654 21.6719 21.2814 21.5899C21.2412 21.5495 21.2093 21.5017 21.1874 21.449C21.1653 21.3958 21.1539 21.3388 21.1539 21.2812C21.1539 21.2237 21.1653 21.1667 21.1874 21.1135C21.2095 21.0603 21.2418 21.012 21.2826 20.9714L21.2832 20.9707L22.9629 19.2911L23.8165 18.4375H22.6094H16.125C16.009 18.4375 15.8977 18.3914 15.8156 18.3094C15.7336 18.2273 15.6875 18.116 15.6875 18C15.6875 17.884 15.7336 17.7727 15.8156 17.6906C15.8977 17.6086 16.009 17.5625 16.125 17.5625H22.6094H23.8165L22.9629 16.7089L21.2832 15.0293C21.2009 14.9469 21.1546 14.8352 21.1546 14.7188C21.1546 14.6023 21.2009 14.4906 21.2832 14.4082C21.3656 14.3259 21.4773 14.2796 21.5938 14.2796C21.7102 14.2796 21.8219 14.3259 21.9043 14.4082L25.1855 17.6895L25.1861 17.6901C25.2269 17.7307 25.2593 17.779 25.2814 17.8322C25.3034 17.8854 25.3148 17.9424 25.3148 18C25.3148 18.0576 25.3034 18.1146 25.2814 18.1678C25.2593 18.221 25.2269 18.2693 25.1861 18.3099ZM11.5625 23.9375V24.4375H12.0625H16.125C16.241 24.4375 16.3523 24.4836 16.4344 24.5656C16.5164 24.6477 16.5625 24.759 16.5625 24.875C16.5625 24.991 16.5164 25.1023 16.4344 25.1844C16.3523 25.2664 16.241 25.3125 16.125 25.3125H11.7514C11.4698 25.3108 11.2001 25.1982 11.001 24.999C10.8018 24.7999 10.6892 24.5303 10.6875 24.2486V11.7514C10.6892 11.4697 10.8018 11.2001 11.001 11.001C11.2001 10.8018 11.4697 10.6892 11.7514 10.6875H16.125C16.241 10.6875 16.3523 10.7336 16.4344 10.8156C16.5164 10.8977 16.5625 11.009 16.5625 11.125C16.5625 11.241 16.5164 11.3523 16.4344 11.4344C16.3523 11.5164 16.241 11.5625 16.125 11.5625H12.0625H11.5625V12.0625V23.9375Z" stroke="#1C1C1E"/>
<path d="M25.1861 18.3099L25.1855 18.3105L21.9049 21.5911C21.9047 21.5913 21.9046 21.5914 21.9045 21.5915C21.8638 21.632 21.8156 21.664 21.7626 21.6858C21.7096 21.7076 21.6528 21.7188 21.5955 21.7188C21.4781 21.7181 21.3654 21.6719 21.2814 21.5899C21.2412 21.5495 21.2093 21.5017 21.1874 21.449C21.1653 21.3958 21.1539 21.3388 21.1539 21.2812C21.1539 21.2237 21.1653 21.1667 21.1874 21.1135C21.2095 21.0603 21.2418 21.012 21.2826 20.9714L21.2832 20.9707L22.9629 19.2911L23.8165 18.4375H22.6094H16.125C16.009 18.4375 15.8977 18.3914 15.8156 18.3094C15.7336 18.2273 15.6875 18.116 15.6875 18C15.6875 17.884 15.7336 17.7727 15.8156 17.6906C15.8977 17.6086 16.009 17.5625 16.125 17.5625H22.6094H23.8165L22.9629 16.7089L21.2832 15.0293C21.2009 14.9469 21.1546 14.8352 21.1546 14.7188C21.1546 14.6023 21.2009 14.4906 21.2832 14.4082C21.3656 14.3259 21.4773 14.2796 21.5938 14.2796C21.7102 14.2796 21.8219 14.3259 21.9043 14.4082L25.1855 17.6895L25.1861 17.6901C25.2269 17.7307 25.2593 17.779 25.2814 17.8322C25.3034 17.8854 25.3148 17.9424 25.3148 18C25.3148 18.0576 25.3034 18.1146 25.2814 18.1678C25.2593 18.221 25.2269 18.2693 25.1861 18.3099ZM11.5625 23.9375V24.4375H12.0625H16.125C16.241 24.4375 16.3523 24.4836 16.4344 24.5656C16.5164 24.6477 16.5625 24.759 16.5625 24.875C16.5625 24.991 16.5164 25.1023 16.4344 25.1844C16.3523 25.2664 16.241 25.3125 16.125 25.3125H11.7514C11.4698 25.3108 11.2001 25.1982 11.001 24.999C10.8018 24.7999 10.6892 24.5303 10.6875 24.2486V11.7514C10.6892 11.4697 10.8018 11.2001 11.001 11.001C11.2001 10.8018 11.4697 10.6892 11.7514 10.6875H16.125C16.241 10.6875 16.3523 10.7336 16.4344 10.8156C16.5164 10.8977 16.5625 11.009 16.5625 11.125C16.5625 11.241 16.5164 11.3523 16.4344 11.4344C16.3523 11.5164 16.241 11.5625 16.125 11.5625H12.0625H11.5625V12.0625V23.9375Z" stroke="white" stroke-opacity="0.2"/>
</svg>
