<svg width="36" height="36" viewBox="0 0 36 36" fill="none" xmlns="http://www.w3.org/2000/svg">
<rect width="36" height="36" rx="18" fill="#FF630B"/>
<path d="M15.6119 22.0633L15.6116 22.0629C15.4869 21.9382 15.4851 21.7215 15.6116 21.595L18.8449 18.3617L19.198 18.0086L18.8453 17.655L15.612 14.4134L15.6116 14.4129C15.5808 14.3822 15.5565 14.3457 15.5398 14.3056C15.5232 14.2654 15.5147 14.2224 15.5147 14.179C15.5147 14.1355 15.5232 14.0925 15.5398 14.0523C15.5565 14.0122 15.5808 13.9757 15.6116 13.945C15.6423 13.9143 15.6788 13.8899 15.7189 13.8733C15.759 13.8567 15.8021 13.8481 15.8455 13.8481C15.889 13.8481 15.932 13.8567 15.9721 13.8733C16.0123 13.8899 16.0487 13.9143 16.0795 13.945L19.9045 17.77L19.9048 17.7704C19.9355 17.801 19.9599 17.8374 19.9765 17.8775C19.9932 17.9176 20.0017 17.9606 20.0017 18.004C20.0017 18.0473 19.9932 18.0903 19.9765 18.1304C19.9599 18.1705 19.9355 18.2069 19.9048 18.2375L19.9045 18.2379L16.0795 22.0629L16.0791 22.0633C16.0484 22.094 16.012 22.1183 15.9719 22.135C15.9319 22.1516 15.8889 22.1602 15.8455 22.1602C15.8021 22.1602 15.7591 22.1516 15.7191 22.135C15.679 22.1183 15.6426 22.094 15.6119 22.0633Z" fill="white"/>
<path d="M15.6119 22.0633L15.6116 22.0629C15.4869 21.9382 15.4851 21.7215 15.6116 21.595L18.8449 18.3617L19.198 18.0086L18.8453 17.655L15.612 14.4134L15.6116 14.4129C15.5808 14.3822 15.5565 14.3457 15.5398 14.3056C15.5232 14.2654 15.5147 14.2224 15.5147 14.179C15.5147 14.1355 15.5232 14.0925 15.5398 14.0523C15.5565 14.0122 15.5808 13.9757 15.6116 13.945C15.6423 13.9143 15.6788 13.8899 15.7189 13.8733C15.759 13.8567 15.8021 13.8481 15.8455 13.8481C15.889 13.8481 15.932 13.8567 15.9721 13.8733C16.0123 13.8899 16.0487 13.9143 16.0795 13.945L19.9045 17.77L19.9048 17.7704C19.9355 17.801 19.9599 17.8374 19.9765 17.8775C19.9932 17.9176 20.0017 17.9606 20.0017 18.004C20.0017 18.0473 19.9932 18.0903 19.9765 18.1304C19.9599 18.1705 19.9355 18.2069 19.9048 18.2375L19.9045 18.2379L16.0795 22.0629L16.0791 22.0633C16.0484 22.094 16.012 22.1183 15.9719 22.135C15.9319 22.1516 15.8889 22.1602 15.8455 22.1602C15.8021 22.1602 15.7591 22.1516 15.7191 22.135C15.679 22.1183 15.6426 22.094 15.6119 22.0633Z" stroke="white"/>
<path d="M15.6119 22.0633L15.6116 22.0629C15.4869 21.9382 15.4851 21.7215 15.6116 21.595L18.8449 18.3617L19.198 18.0086L18.8453 17.655L15.612 14.4134L15.6116 14.4129C15.5808 14.3822 15.5565 14.3457 15.5398 14.3056C15.5232 14.2654 15.5147 14.2224 15.5147 14.179C15.5147 14.1355 15.5232 14.0925 15.5398 14.0523C15.5565 14.0122 15.5808 13.9757 15.6116 13.945C15.6423 13.9143 15.6788 13.8899 15.7189 13.8733C15.759 13.8567 15.8021 13.8481 15.8455 13.8481C15.889 13.8481 15.932 13.8567 15.9721 13.8733C16.0123 13.8899 16.0487 13.9143 16.0795 13.945L19.9045 17.77L19.9048 17.7704C19.9355 17.801 19.9599 17.8374 19.9765 17.8775C19.9932 17.9176 20.0017 17.9606 20.0017 18.004C20.0017 18.0473 19.9932 18.0903 19.9765 18.1304C19.9599 18.1705 19.9355 18.2069 19.9048 18.2375L19.9045 18.2379L16.0795 22.0629L16.0791 22.0633C16.0484 22.094 16.012 22.1183 15.9719 22.135C15.9319 22.1516 15.8889 22.1602 15.8455 22.1602C15.8021 22.1602 15.7591 22.1516 15.7191 22.135C15.679 22.1183 15.6426 22.094 15.6119 22.0633Z" stroke="white" stroke-opacity="0.2"/>
</svg>
