<svg width="36" height="36" viewBox="0 0 36 36" fill="none" xmlns="http://www.w3.org/2000/svg">
<rect width="36" height="36" rx="18" fill="#F2F2F1"/>
<mask id="path-2-inside-1_11_1415" fill="white">
<path d="M17.9999 13.6249C17.1346 13.6249 16.2888 13.8815 15.5693 14.3622C14.8498 14.843 14.2891 15.5263 13.958 16.3257C13.6268 17.1251 13.5402 18.0048 13.709 18.8534C13.8778 19.7021 14.2945 20.4817 14.9063 21.0935C15.5182 21.7054 16.2977 22.122 17.1464 22.2909C17.9951 22.4597 18.8747 22.373 19.6742 22.0419C20.4736 21.7108 21.1569 21.15 21.6376 20.4305C22.1183 19.7111 22.3749 18.8652 22.3749 17.9999C22.3749 16.8396 21.914 15.7268 21.0935 14.9063C20.273 14.0859 19.1602 13.6249 17.9999 13.6249ZM17.9999 20.4999C17.5055 20.4999 17.0221 20.3533 16.611 20.0786C16.1999 19.8039 15.8794 19.4134 15.6902 18.9566C15.501 18.4998 15.4515 17.9972 15.548 17.5122C15.6444 17.0272 15.8825 16.5818 16.2322 16.2322C16.5818 15.8825 17.0272 15.6444 17.5122 15.548C17.9972 15.4515 18.4998 15.501 18.9566 15.6902C19.4134 15.8794 19.8039 16.1999 20.0786 16.611C20.3533 17.0221 20.4999 17.5055 20.4999 17.9999C20.4979 18.6623 20.2338 19.297 19.7654 19.7654C19.297 20.2338 18.6623 20.4979 17.9999 20.4999ZM26.5937 19.5624L25.4921 18.0937V17.9062L26.5937 16.4374C26.6774 16.3231 26.7349 16.1917 26.7619 16.0526C26.7889 15.9135 26.7848 15.7701 26.7499 15.6327C26.5481 14.8833 26.2487 14.1636 25.8593 13.4921C25.7893 13.368 25.6915 13.2618 25.5736 13.1818C25.4557 13.1018 25.3208 13.0503 25.1796 13.0312L23.3749 12.7734L23.2265 12.6249L22.9687 10.8202C22.9496 10.679 22.898 10.5442 22.8181 10.4262C22.7381 10.3083 22.6319 10.2105 22.5077 10.1405C21.8363 9.75119 21.1166 9.45175 20.3671 9.24993C20.23 9.21274 20.0861 9.20749 19.9466 9.23458C19.8071 9.26166 19.6757 9.32037 19.5624 9.40618L18.1015 10.4999H17.8984L16.4374 9.40618C16.3231 9.32241 16.1917 9.26496 16.0526 9.23794C15.9135 9.21093 15.7701 9.21502 15.6327 9.24993C14.8833 9.45175 14.1636 9.75119 13.4921 10.1405C13.368 10.2105 13.2618 10.3083 13.1818 10.4262C13.1018 10.5442 13.0503 10.679 13.0312 10.8202L12.7734 12.6249C12.72 12.6704 12.6704 12.72 12.6249 12.7734L10.8202 13.0312C10.679 13.0503 10.5442 13.1018 10.4262 13.1818C10.3083 13.2618 10.2105 13.368 10.1406 13.4921C9.75119 14.1636 9.45175 14.8833 9.24993 15.6327C9.21274 15.7699 9.20749 15.9137 9.23458 16.0532C9.26166 16.1927 9.32037 16.3242 9.40618 16.4374L10.5077 17.9062V18.0937L9.40618 19.5624C9.32241 19.6767 9.26496 19.8082 9.23794 19.9473C9.21093 20.0864 9.21502 20.2298 9.24993 20.3671C9.45175 21.1166 9.75119 21.8363 10.1406 22.5077C10.2105 22.6319 10.3083 22.7381 10.4262 22.8181C10.5442 22.898 10.679 22.9496 10.8202 22.9687L12.6249 23.2265L12.7734 23.3749L13.0312 25.1796C13.0503 25.3208 13.1018 25.4557 13.1818 25.5736C13.2618 25.6915 13.368 25.7893 13.4921 25.8593C14.1636 26.2487 14.8833 26.5481 15.6327 26.7499C15.7115 26.7723 15.7931 26.7828 15.8749 26.7812C16.078 26.7823 16.2757 26.7164 16.4374 26.5937L17.8984 25.4999H18.1015L19.5624 26.5937C19.6767 26.6774 19.8082 26.7349 19.9473 26.7619C20.0864 26.7889 20.2298 26.7848 20.3671 26.7499C21.1166 26.5481 21.8363 26.2487 22.5077 25.8593C22.6319 25.7893 22.7381 25.6915 22.8181 25.5736C22.898 25.4557 22.9496 25.3208 22.9687 25.1796L23.2343 23.3671L23.3671 23.2343L25.1796 22.9687C25.3208 22.9496 25.4557 22.898 25.5736 22.8181C25.6915 22.7381 25.7893 22.6319 25.8593 22.5077C26.2487 21.8363 26.5481 21.1166 26.7499 20.3671C26.7871 20.23 26.7924 20.0861 26.7653 19.9466C26.7382 19.8071 26.6795 19.6757 26.5937 19.5624ZM24.4452 21.1796L22.7812 21.4218C22.5728 21.4526 22.3805 21.5514 22.2343 21.703C22.1015 21.8437 21.8515 22.1015 21.7265 22.2109C21.5616 22.3597 21.4538 22.5614 21.4218 22.7812L21.1796 24.4452C20.897 24.5883 20.6046 24.711 20.3046 24.8124L18.9609 23.7968C18.7837 23.6642 18.5644 23.6003 18.3437 23.6171H17.6562C17.4356 23.6017 17.2168 23.6654 17.039 23.7968L15.6952 24.8124C15.3952 24.711 15.1028 24.5883 14.8202 24.4452L14.578 22.7812C14.546 22.5614 14.4383 22.3597 14.2734 22.2109C14.1004 22.0613 13.9385 21.8994 13.789 21.7265C13.6402 21.5616 13.4385 21.4538 13.2187 21.4218L11.5546 21.1796C11.4116 20.897 11.2889 20.6046 11.1874 20.3046L12.203 18.9609C12.3276 18.7911 12.3934 18.5854 12.3906 18.3749C12.3827 18.1796 12.3749 17.8202 12.3827 17.6562C12.3981 17.4356 12.3344 17.2168 12.203 17.039L11.1874 15.6952C11.2889 15.3952 11.4116 15.1028 11.5546 14.8202L13.2187 14.578C13.4385 14.546 13.6402 14.4383 13.789 14.2734C13.9385 14.1004 14.1004 13.9385 14.2734 13.789C14.4383 13.6402 14.546 13.4385 14.578 13.2187L14.8202 11.5546C15.1028 11.4116 15.3952 11.2889 15.6952 11.1874L17.039 12.203C17.2162 12.3357 17.4355 12.3995 17.6562 12.3827C17.8827 12.3749 18.1171 12.3749 18.3437 12.3827C18.5644 12.3995 18.7837 12.3357 18.9609 12.203L20.3046 11.1874C20.6046 11.2889 20.897 11.4116 21.1796 11.5546L21.4218 13.2187C21.4538 13.4385 21.5616 13.6402 21.7265 13.789C21.8994 13.9385 22.0613 14.1004 22.2109 14.2734C22.3597 14.4383 22.5614 14.546 22.7812 14.578L24.4452 14.8202C24.5883 15.1028 24.711 15.3952 24.8124 15.6952L23.7968 17.039C23.6713 17.2078 23.6078 17.4148 23.6171 17.6249C23.6171 17.8202 23.6249 18.1796 23.6171 18.3437C23.6003 18.5644 23.6642 18.7837 23.7968 18.9609L24.8124 20.3046C24.711 20.6046 24.5883 20.897 24.4452 21.1796Z"/>
</mask>
<path d="M17.9999 13.6249C17.1346 13.6249 16.2888 13.8815 15.5693 14.3622C14.8498 14.843 14.2891 15.5263 13.958 16.3257C13.6268 17.1251 13.5402 18.0048 13.709 18.8534C13.8778 19.7021 14.2945 20.4817 14.9063 21.0935C15.5182 21.7054 16.2977 22.122 17.1464 22.2909C17.9951 22.4597 18.8747 22.373 19.6742 22.0419C20.4736 21.7108 21.1569 21.15 21.6376 20.4305C22.1183 19.7111 22.3749 18.8652 22.3749 17.9999C22.3749 16.8396 21.914 15.7268 21.0935 14.9063C20.273 14.0859 19.1602 13.6249 17.9999 13.6249ZM17.9999 20.4999C17.5055 20.4999 17.0221 20.3533 16.611 20.0786C16.1999 19.8039 15.8794 19.4134 15.6902 18.9566C15.501 18.4998 15.4515 17.9972 15.548 17.5122C15.6444 17.0272 15.8825 16.5818 16.2322 16.2322C16.5818 15.8825 17.0272 15.6444 17.5122 15.548C17.9972 15.4515 18.4998 15.501 18.9566 15.6902C19.4134 15.8794 19.8039 16.1999 20.0786 16.611C20.3533 17.0221 20.4999 17.5055 20.4999 17.9999C20.4979 18.6623 20.2338 19.297 19.7654 19.7654C19.297 20.2338 18.6623 20.4979 17.9999 20.4999ZM26.5937 19.5624L25.4921 18.0937V17.9062L26.5937 16.4374C26.6774 16.3231 26.7349 16.1917 26.7619 16.0526C26.7889 15.9135 26.7848 15.7701 26.7499 15.6327C26.5481 14.8833 26.2487 14.1636 25.8593 13.4921C25.7893 13.368 25.6915 13.2618 25.5736 13.1818C25.4557 13.1018 25.3208 13.0503 25.1796 13.0312L23.3749 12.7734L23.2265 12.6249L22.9687 10.8202C22.9496 10.679 22.898 10.5442 22.8181 10.4262C22.7381 10.3083 22.6319 10.2105 22.5077 10.1405C21.8363 9.75119 21.1166 9.45175 20.3671 9.24993C20.23 9.21274 20.0861 9.20749 19.9466 9.23458C19.8071 9.26166 19.6757 9.32037 19.5624 9.40618L18.1015 10.4999H17.8984L16.4374 9.40618C16.3231 9.32241 16.1917 9.26496 16.0526 9.23794C15.9135 9.21093 15.7701 9.21502 15.6327 9.24993C14.8833 9.45175 14.1636 9.75119 13.4921 10.1405C13.368 10.2105 13.2618 10.3083 13.1818 10.4262C13.1018 10.5442 13.0503 10.679 13.0312 10.8202L12.7734 12.6249C12.72 12.6704 12.6704 12.72 12.6249 12.7734L10.8202 13.0312C10.679 13.0503 10.5442 13.1018 10.4262 13.1818C10.3083 13.2618 10.2105 13.368 10.1406 13.4921C9.75119 14.1636 9.45175 14.8833 9.24993 15.6327C9.21274 15.7699 9.20749 15.9137 9.23458 16.0532C9.26166 16.1927 9.32037 16.3242 9.40618 16.4374L10.5077 17.9062V18.0937L9.40618 19.5624C9.32241 19.6767 9.26496 19.8082 9.23794 19.9473C9.21093 20.0864 9.21502 20.2298 9.24993 20.3671C9.45175 21.1166 9.75119 21.8363 10.1406 22.5077C10.2105 22.6319 10.3083 22.7381 10.4262 22.8181C10.5442 22.898 10.679 22.9496 10.8202 22.9687L12.6249 23.2265L12.7734 23.3749L13.0312 25.1796C13.0503 25.3208 13.1018 25.4557 13.1818 25.5736C13.2618 25.6915 13.368 25.7893 13.4921 25.8593C14.1636 26.2487 14.8833 26.5481 15.6327 26.7499C15.7115 26.7723 15.7931 26.7828 15.8749 26.7812C16.078 26.7823 16.2757 26.7164 16.4374 26.5937L17.8984 25.4999H18.1015L19.5624 26.5937C19.6767 26.6774 19.8082 26.7349 19.9473 26.7619C20.0864 26.7889 20.2298 26.7848 20.3671 26.7499C21.1166 26.5481 21.8363 26.2487 22.5077 25.8593C22.6319 25.7893 22.7381 25.6915 22.8181 25.5736C22.898 25.4557 22.9496 25.3208 22.9687 25.1796L23.2343 23.3671L23.3671 23.2343L25.1796 22.9687C25.3208 22.9496 25.4557 22.898 25.5736 22.8181C25.6915 22.7381 25.7893 22.6319 25.8593 22.5077C26.2487 21.8363 26.5481 21.1166 26.7499 20.3671C26.7871 20.23 26.7924 20.0861 26.7653 19.9466C26.7382 19.8071 26.6795 19.6757 26.5937 19.5624ZM24.4452 21.1796L22.7812 21.4218C22.5728 21.4526 22.3805 21.5514 22.2343 21.703C22.1015 21.8437 21.8515 22.1015 21.7265 22.2109C21.5616 22.3597 21.4538 22.5614 21.4218 22.7812L21.1796 24.4452C20.897 24.5883 20.6046 24.711 20.3046 24.8124L18.9609 23.7968C18.7837 23.6642 18.5644 23.6003 18.3437 23.6171H17.6562C17.4356 23.6017 17.2168 23.6654 17.039 23.7968L15.6952 24.8124C15.3952 24.711 15.1028 24.5883 14.8202 24.4452L14.578 22.7812C14.546 22.5614 14.4383 22.3597 14.2734 22.2109C14.1004 22.0613 13.9385 21.8994 13.789 21.7265C13.6402 21.5616 13.4385 21.4538 13.2187 21.4218L11.5546 21.1796C11.4116 20.897 11.2889 20.6046 11.1874 20.3046L12.203 18.9609C12.3276 18.7911 12.3934 18.5854 12.3906 18.3749C12.3827 18.1796 12.3749 17.8202 12.3827 17.6562C12.3981 17.4356 12.3344 17.2168 12.203 17.039L11.1874 15.6952C11.2889 15.3952 11.4116 15.1028 11.5546 14.8202L13.2187 14.578C13.4385 14.546 13.6402 14.4383 13.789 14.2734C13.9385 14.1004 14.1004 13.9385 14.2734 13.789C14.4383 13.6402 14.546 13.4385 14.578 13.2187L14.8202 11.5546C15.1028 11.4116 15.3952 11.2889 15.6952 11.1874L17.039 12.203C17.2162 12.3357 17.4355 12.3995 17.6562 12.3827C17.8827 12.3749 18.1171 12.3749 18.3437 12.3827C18.5644 12.3995 18.7837 12.3357 18.9609 12.203L20.3046 11.1874C20.6046 11.2889 20.897 11.4116 21.1796 11.5546L21.4218 13.2187C21.4538 13.4385 21.5616 13.6402 21.7265 13.789C21.8994 13.9385 22.0613 14.1004 22.2109 14.2734C22.3597 14.4383 22.5614 14.546 22.7812 14.578L24.4452 14.8202C24.5883 15.1028 24.711 15.3952 24.8124 15.6952L23.7968 17.039C23.6713 17.2078 23.6078 17.4148 23.6171 17.6249C23.6171 17.8202 23.6249 18.1796 23.6171 18.3437C23.6003 18.5644 23.6642 18.7837 23.7968 18.9609L24.8124 20.3046C24.711 20.6046 24.5883 20.897 24.4452 21.1796Z" fill="black"/>
<path d="M17.9999 13.6249C17.1346 13.6249 16.2888 13.8815 15.5693 14.3622C14.8498 14.843 14.2891 15.5263 13.958 16.3257C13.6268 17.1251 13.5402 18.0048 13.709 18.8534C13.8778 19.7021 14.2945 20.4817 14.9063 21.0935C15.5182 21.7054 16.2977 22.122 17.1464 22.2909C17.9951 22.4597 18.8747 22.373 19.6742 22.0419C20.4736 21.7108 21.1569 21.15 21.6376 20.4305C22.1183 19.7111 22.3749 18.8652 22.3749 17.9999C22.3749 16.8396 21.914 15.7268 21.0935 14.9063C20.273 14.0859 19.1602 13.6249 17.9999 13.6249ZM17.9999 20.4999C17.5055 20.4999 17.0221 20.3533 16.611 20.0786C16.1999 19.8039 15.8794 19.4134 15.6902 18.9566C15.501 18.4998 15.4515 17.9972 15.548 17.5122C15.6444 17.0272 15.8825 16.5818 16.2322 16.2322C16.5818 15.8825 17.0272 15.6444 17.5122 15.548C17.9972 15.4515 18.4998 15.501 18.9566 15.6902C19.4134 15.8794 19.8039 16.1999 20.0786 16.611C20.3533 17.0221 20.4999 17.5055 20.4999 17.9999C20.4979 18.6623 20.2338 19.297 19.7654 19.7654C19.297 20.2338 18.6623 20.4979 17.9999 20.4999ZM26.5937 19.5624L25.4921 18.0937V17.9062L26.5937 16.4374C26.6774 16.3231 26.7349 16.1917 26.7619 16.0526C26.7889 15.9135 26.7848 15.7701 26.7499 15.6327C26.5481 14.8833 26.2487 14.1636 25.8593 13.4921C25.7893 13.368 25.6915 13.2618 25.5736 13.1818C25.4557 13.1018 25.3208 13.0503 25.1796 13.0312L23.3749 12.7734L23.2265 12.6249L22.9687 10.8202C22.9496 10.679 22.898 10.5442 22.8181 10.4262C22.7381 10.3083 22.6319 10.2105 22.5077 10.1405C21.8363 9.75119 21.1166 9.45175 20.3671 9.24993C20.23 9.21274 20.0861 9.20749 19.9466 9.23458C19.8071 9.26166 19.6757 9.32037 19.5624 9.40618L18.1015 10.4999H17.8984L16.4374 9.40618C16.3231 9.32241 16.1917 9.26496 16.0526 9.23794C15.9135 9.21093 15.7701 9.21502 15.6327 9.24993C14.8833 9.45175 14.1636 9.75119 13.4921 10.1405C13.368 10.2105 13.2618 10.3083 13.1818 10.4262C13.1018 10.5442 13.0503 10.679 13.0312 10.8202L12.7734 12.6249C12.72 12.6704 12.6704 12.72 12.6249 12.7734L10.8202 13.0312C10.679 13.0503 10.5442 13.1018 10.4262 13.1818C10.3083 13.2618 10.2105 13.368 10.1406 13.4921C9.75119 14.1636 9.45175 14.8833 9.24993 15.6327C9.21274 15.7699 9.20749 15.9137 9.23458 16.0532C9.26166 16.1927 9.32037 16.3242 9.40618 16.4374L10.5077 17.9062V18.0937L9.40618 19.5624C9.32241 19.6767 9.26496 19.8082 9.23794 19.9473C9.21093 20.0864 9.21502 20.2298 9.24993 20.3671C9.45175 21.1166 9.75119 21.8363 10.1406 22.5077C10.2105 22.6319 10.3083 22.7381 10.4262 22.8181C10.5442 22.898 10.679 22.9496 10.8202 22.9687L12.6249 23.2265L12.7734 23.3749L13.0312 25.1796C13.0503 25.3208 13.1018 25.4557 13.1818 25.5736C13.2618 25.6915 13.368 25.7893 13.4921 25.8593C14.1636 26.2487 14.8833 26.5481 15.6327 26.7499C15.7115 26.7723 15.7931 26.7828 15.8749 26.7812C16.078 26.7823 16.2757 26.7164 16.4374 26.5937L17.8984 25.4999H18.1015L19.5624 26.5937C19.6767 26.6774 19.8082 26.7349 19.9473 26.7619C20.0864 26.7889 20.2298 26.7848 20.3671 26.7499C21.1166 26.5481 21.8363 26.2487 22.5077 25.8593C22.6319 25.7893 22.7381 25.6915 22.8181 25.5736C22.898 25.4557 22.9496 25.3208 22.9687 25.1796L23.2343 23.3671L23.3671 23.2343L25.1796 22.9687C25.3208 22.9496 25.4557 22.898 25.5736 22.8181C25.6915 22.7381 25.7893 22.6319 25.8593 22.5077C26.2487 21.8363 26.5481 21.1166 26.7499 20.3671C26.7871 20.23 26.7924 20.0861 26.7653 19.9466C26.7382 19.8071 26.6795 19.6757 26.5937 19.5624ZM24.4452 21.1796L22.7812 21.4218C22.5728 21.4526 22.3805 21.5514 22.2343 21.703C22.1015 21.8437 21.8515 22.1015 21.7265 22.2109C21.5616 22.3597 21.4538 22.5614 21.4218 22.7812L21.1796 24.4452C20.897 24.5883 20.6046 24.711 20.3046 24.8124L18.9609 23.7968C18.7837 23.6642 18.5644 23.6003 18.3437 23.6171H17.6562C17.4356 23.6017 17.2168 23.6654 17.039 23.7968L15.6952 24.8124C15.3952 24.711 15.1028 24.5883 14.8202 24.4452L14.578 22.7812C14.546 22.5614 14.4383 22.3597 14.2734 22.2109C14.1004 22.0613 13.9385 21.8994 13.789 21.7265C13.6402 21.5616 13.4385 21.4538 13.2187 21.4218L11.5546 21.1796C11.4116 20.897 11.2889 20.6046 11.1874 20.3046L12.203 18.9609C12.3276 18.7911 12.3934 18.5854 12.3906 18.3749C12.3827 18.1796 12.3749 17.8202 12.3827 17.6562C12.3981 17.4356 12.3344 17.2168 12.203 17.039L11.1874 15.6952C11.2889 15.3952 11.4116 15.1028 11.5546 14.8202L13.2187 14.578C13.4385 14.546 13.6402 14.4383 13.789 14.2734C13.9385 14.1004 14.1004 13.9385 14.2734 13.789C14.4383 13.6402 14.546 13.4385 14.578 13.2187L14.8202 11.5546C15.1028 11.4116 15.3952 11.2889 15.6952 11.1874L17.039 12.203C17.2162 12.3357 17.4355 12.3995 17.6562 12.3827C17.8827 12.3749 18.1171 12.3749 18.3437 12.3827C18.5644 12.3995 18.7837 12.3357 18.9609 12.203L20.3046 11.1874C20.6046 11.2889 20.897 11.4116 21.1796 11.5546L21.4218 13.2187C21.4538 13.4385 21.5616 13.6402 21.7265 13.789C21.8994 13.9385 22.0613 14.1004 22.2109 14.2734C22.3597 14.4383 22.5614 14.546 22.7812 14.578L24.4452 14.8202C24.5883 15.1028 24.711 15.3952 24.8124 15.6952L23.7968 17.039C23.6713 17.2078 23.6078 17.4148 23.6171 17.6249C23.6171 17.8202 23.6249 18.1796 23.6171 18.3437C23.6003 18.5644 23.6642 18.7837 23.7968 18.9609L24.8124 20.3046C24.711 20.6046 24.5883 20.897 24.4452 21.1796Z" stroke="#1C1C1E" stroke-width="2" mask="url(#path-2-inside-1_11_1415)"/>
<path d="M17.9999 13.6249C17.1346 13.6249 16.2888 13.8815 15.5693 14.3622C14.8498 14.843 14.2891 15.5263 13.958 16.3257C13.6268 17.1251 13.5402 18.0048 13.709 18.8534C13.8778 19.7021 14.2945 20.4817 14.9063 21.0935C15.5182 21.7054 16.2977 22.122 17.1464 22.2909C17.9951 22.4597 18.8747 22.373 19.6742 22.0419C20.4736 21.7108 21.1569 21.15 21.6376 20.4305C22.1183 19.7111 22.3749 18.8652 22.3749 17.9999C22.3749 16.8396 21.914 15.7268 21.0935 14.9063C20.273 14.0859 19.1602 13.6249 17.9999 13.6249ZM17.9999 20.4999C17.5055 20.4999 17.0221 20.3533 16.611 20.0786C16.1999 19.8039 15.8794 19.4134 15.6902 18.9566C15.501 18.4998 15.4515 17.9972 15.548 17.5122C15.6444 17.0272 15.8825 16.5818 16.2322 16.2322C16.5818 15.8825 17.0272 15.6444 17.5122 15.548C17.9972 15.4515 18.4998 15.501 18.9566 15.6902C19.4134 15.8794 19.8039 16.1999 20.0786 16.611C20.3533 17.0221 20.4999 17.5055 20.4999 17.9999C20.4979 18.6623 20.2338 19.297 19.7654 19.7654C19.297 20.2338 18.6623 20.4979 17.9999 20.4999ZM26.5937 19.5624L25.4921 18.0937V17.9062L26.5937 16.4374C26.6774 16.3231 26.7349 16.1917 26.7619 16.0526C26.7889 15.9135 26.7848 15.7701 26.7499 15.6327C26.5481 14.8833 26.2487 14.1636 25.8593 13.4921C25.7893 13.368 25.6915 13.2618 25.5736 13.1818C25.4557 13.1018 25.3208 13.0503 25.1796 13.0312L23.3749 12.7734L23.2265 12.6249L22.9687 10.8202C22.9496 10.679 22.898 10.5442 22.8181 10.4262C22.7381 10.3083 22.6319 10.2105 22.5077 10.1405C21.8363 9.75119 21.1166 9.45175 20.3671 9.24993C20.23 9.21274 20.0861 9.20749 19.9466 9.23458C19.8071 9.26166 19.6757 9.32037 19.5624 9.40618L18.1015 10.4999H17.8984L16.4374 9.40618C16.3231 9.32241 16.1917 9.26496 16.0526 9.23794C15.9135 9.21093 15.7701 9.21502 15.6327 9.24993C14.8833 9.45175 14.1636 9.75119 13.4921 10.1405C13.368 10.2105 13.2618 10.3083 13.1818 10.4262C13.1018 10.5442 13.0503 10.679 13.0312 10.8202L12.7734 12.6249C12.72 12.6704 12.6704 12.72 12.6249 12.7734L10.8202 13.0312C10.679 13.0503 10.5442 13.1018 10.4262 13.1818C10.3083 13.2618 10.2105 13.368 10.1406 13.4921C9.75119 14.1636 9.45175 14.8833 9.24993 15.6327C9.21274 15.7699 9.20749 15.9137 9.23458 16.0532C9.26166 16.1927 9.32037 16.3242 9.40618 16.4374L10.5077 17.9062V18.0937L9.40618 19.5624C9.32241 19.6767 9.26496 19.8082 9.23794 19.9473C9.21093 20.0864 9.21502 20.2298 9.24993 20.3671C9.45175 21.1166 9.75119 21.8363 10.1406 22.5077C10.2105 22.6319 10.3083 22.7381 10.4262 22.8181C10.5442 22.898 10.679 22.9496 10.8202 22.9687L12.6249 23.2265L12.7734 23.3749L13.0312 25.1796C13.0503 25.3208 13.1018 25.4557 13.1818 25.5736C13.2618 25.6915 13.368 25.7893 13.4921 25.8593C14.1636 26.2487 14.8833 26.5481 15.6327 26.7499C15.7115 26.7723 15.7931 26.7828 15.8749 26.7812C16.078 26.7823 16.2757 26.7164 16.4374 26.5937L17.8984 25.4999H18.1015L19.5624 26.5937C19.6767 26.6774 19.8082 26.7349 19.9473 26.7619C20.0864 26.7889 20.2298 26.7848 20.3671 26.7499C21.1166 26.5481 21.8363 26.2487 22.5077 25.8593C22.6319 25.7893 22.7381 25.6915 22.8181 25.5736C22.898 25.4557 22.9496 25.3208 22.9687 25.1796L23.2343 23.3671L23.3671 23.2343L25.1796 22.9687C25.3208 22.9496 25.4557 22.898 25.5736 22.8181C25.6915 22.7381 25.7893 22.6319 25.8593 22.5077C26.2487 21.8363 26.5481 21.1166 26.7499 20.3671C26.7871 20.23 26.7924 20.0861 26.7653 19.9466C26.7382 19.8071 26.6795 19.6757 26.5937 19.5624ZM24.4452 21.1796L22.7812 21.4218C22.5728 21.4526 22.3805 21.5514 22.2343 21.703C22.1015 21.8437 21.8515 22.1015 21.7265 22.2109C21.5616 22.3597 21.4538 22.5614 21.4218 22.7812L21.1796 24.4452C20.897 24.5883 20.6046 24.711 20.3046 24.8124L18.9609 23.7968C18.7837 23.6642 18.5644 23.6003 18.3437 23.6171H17.6562C17.4356 23.6017 17.2168 23.6654 17.039 23.7968L15.6952 24.8124C15.3952 24.711 15.1028 24.5883 14.8202 24.4452L14.578 22.7812C14.546 22.5614 14.4383 22.3597 14.2734 22.2109C14.1004 22.0613 13.9385 21.8994 13.789 21.7265C13.6402 21.5616 13.4385 21.4538 13.2187 21.4218L11.5546 21.1796C11.4116 20.897 11.2889 20.6046 11.1874 20.3046L12.203 18.9609C12.3276 18.7911 12.3934 18.5854 12.3906 18.3749C12.3827 18.1796 12.3749 17.8202 12.3827 17.6562C12.3981 17.4356 12.3344 17.2168 12.203 17.039L11.1874 15.6952C11.2889 15.3952 11.4116 15.1028 11.5546 14.8202L13.2187 14.578C13.4385 14.546 13.6402 14.4383 13.789 14.2734C13.9385 14.1004 14.1004 13.9385 14.2734 13.789C14.4383 13.6402 14.546 13.4385 14.578 13.2187L14.8202 11.5546C15.1028 11.4116 15.3952 11.2889 15.6952 11.1874L17.039 12.203C17.2162 12.3357 17.4355 12.3995 17.6562 12.3827C17.8827 12.3749 18.1171 12.3749 18.3437 12.3827C18.5644 12.3995 18.7837 12.3357 18.9609 12.203L20.3046 11.1874C20.6046 11.2889 20.897 11.4116 21.1796 11.5546L21.4218 13.2187C21.4538 13.4385 21.5616 13.6402 21.7265 13.789C21.8994 13.9385 22.0613 14.1004 22.2109 14.2734C22.3597 14.4383 22.5614 14.546 22.7812 14.578L24.4452 14.8202C24.5883 15.1028 24.711 15.3952 24.8124 15.6952L23.7968 17.039C23.6713 17.2078 23.6078 17.4148 23.6171 17.6249C23.6171 17.8202 23.6249 18.1796 23.6171 18.3437C23.6003 18.5644 23.6642 18.7837 23.7968 18.9609L24.8124 20.3046C24.711 20.6046 24.5883 20.897 24.4452 21.1796Z" stroke="white" stroke-opacity="0.2" stroke-width="2" mask="url(#path-2-inside-1_11_1415)"/>
</svg>
