<svg width="36" height="36" viewBox="0 0 36 36" fill="none" xmlns="http://www.w3.org/2000/svg">
<rect width="36" height="36" rx="8" fill="#1C1C1E"/>
<rect width="36" height="36" rx="8" fill="white" fill-opacity="0.1"/>
<path d="M22.7558 12.4108C22.912 12.5671 22.9998 12.779 22.9998 13C22.9998 13.221 22.912 13.4329 22.7558 13.5892L18.345 18L22.7558 22.4108C22.9076 22.568 22.9916 22.7785 22.9897 22.997C22.9878 23.2155 22.9002 23.4245 22.7457 23.579C22.5912 23.7335 22.3821 23.8212 22.1637 23.8231C21.9452 23.825 21.7347 23.741 21.5775 23.5892L16.5775 18.5892C16.4213 18.4329 16.3335 18.221 16.3335 18C16.3335 17.779 16.4213 17.5671 16.5775 17.4108L21.5775 12.4108C21.7338 12.2546 21.9457 12.1668 22.1667 12.1668C22.3876 12.1668 22.5995 12.2546 22.7558 12.4108ZM17.7558 12.4108C17.912 12.5671 17.9998 12.779 17.9998 13C17.9998 13.221 17.912 13.4329 17.7558 13.5892L13.345 18L17.7558 22.4108C17.9076 22.568 17.9916 22.7785 17.9897 22.997C17.9878 23.2155 17.9002 23.4245 17.7457 23.579C17.5912 23.7335 17.3821 23.8212 17.1637 23.8231C16.9452 23.825 16.7347 23.741 16.5775 23.5892L11.5775 18.5892C11.4213 18.4329 11.3335 18.221 11.3335 18C11.3335 17.779 11.4213 17.5671 11.5775 17.4108L16.5775 12.4108C16.7338 12.2546 16.9457 12.1668 17.1667 12.1668C17.3876 12.1668 17.5995 12.2546 17.7558 12.4108Z" fill="white"/>
</svg>
