<svg width="36" height="36" viewBox="0 0 36 36" fill="none" xmlns="http://www.w3.org/2000/svg">
<rect width="36" height="36" rx="8" fill="#1C1C1E"/>
<rect width="36" height="36" rx="8" fill="white" fill-opacity="0.1"/>
<path d="M11.5776 23.5791C11.4213 23.4229 11.3336 23.2109 11.3336 22.99C11.3336 22.769 11.4213 22.5571 11.5776 22.4008L15.9884 17.99L11.5776 13.5791C11.4258 13.422 11.3418 13.2115 11.3437 12.993C11.3456 12.7745 11.4332 12.5655 11.5877 12.4109C11.7422 12.2564 11.9512 12.1688 12.1697 12.1669C12.3882 12.165 12.5987 12.249 12.7559 12.4008L17.7559 17.4008C17.9121 17.5571 17.9999 17.769 17.9999 17.99C17.9999 18.2109 17.9121 18.4229 17.7559 18.5791L12.7559 23.5791C12.5996 23.7354 12.3877 23.8231 12.1667 23.8231C11.9458 23.8231 11.7338 23.7354 11.5776 23.5791ZM16.5776 23.5791C16.4213 23.4229 16.3336 23.2109 16.3336 22.99C16.3336 22.769 16.4213 22.5571 16.5776 22.4008L20.9884 17.99L16.5776 13.5791C16.4258 13.422 16.3418 13.2115 16.3437 12.993C16.3456 12.7745 16.4332 12.5655 16.5877 12.4109C16.7422 12.2564 16.9512 12.1688 17.1697 12.1669C17.3882 12.165 17.5987 12.249 17.7559 12.4008L22.7559 17.4008C22.9121 17.5571 22.9999 17.769 22.9999 17.99C22.9999 18.2109 22.9121 18.4229 22.7559 18.5791L17.7559 23.5791C17.5996 23.7354 17.3877 23.8231 17.1667 23.8231C16.9458 23.8231 16.7338 23.7354 16.5776 23.5791Z" fill="white"/>
</svg>
